<?xml version="1.0" encoding="UTF-8"?>
<svg version="1.1" xmlns="http://www.w3.org/2000/svg" width="456" height="456">
<path d="M0 0 C1.21349101 0.64462663 2.42703213 1.28915892 3.640625 1.93359375 C12.10274786 6.51237402 19.59227106 11.91306261 27 18 C27.57782227 18.46954102 28.15564453 18.93908203 28.75097656 19.42285156 C44.23021025 32.06154865 56.39182845 46.41323879 66.97607422 63.36767578 C67.85760297 64.7729932 68.75718558 66.1669566 69.66015625 67.55859375 C90.7518665 100.91161822 92.77009646 138.77962612 92.50696969 177.01241541 C92.47528861 182.40813605 92.47274308 187.8038772 92.46684265 193.19967651 C92.451425 203.37394973 92.41056353 213.54794791 92.3600952 223.72210109 C92.30382124 235.32341157 92.27662044 246.92473657 92.25161803 258.52614999 C92.19963417 282.35091796 92.111932 306.17544343 92 330 C66.74621667 330.11730403 41.49247476 330.20521716 16.23847294 330.25906086 C4.51004437 330.28473669 -7.21821397 330.31968176 -18.9465332 330.37719727 C-29.18045524 330.42735993 -39.41425388 330.45936797 -49.64829546 330.47044247 C-55.05673653 330.47690612 -60.46482487 330.4918703 -65.87315178 330.52865028 C-121.69859643 330.89326463 -168.31861318 317.77483781 -209 278 C-226.32813433 260.25805947 -238.81237616 239.96633331 -248 217 C-248.70576172 215.24429688 -248.70576172 215.24429688 -249.42578125 213.453125 C-250.80534132 209.6774869 -251.95825199 205.87893936 -253 202 C-253.34272949 200.75935791 -253.34272949 200.75935791 -253.69238281 199.49365234 C-261.24566585 170.900541 -261.2944786 137.41836556 -253 109 C-252.73767578 108.08041504 -252.47535156 107.16083008 -252.20507812 106.21337891 C-244.91687881 81.26833699 -232.9319819 58.70074053 -215.34472656 39.484375 C-214.12630474 38.13942135 -212.94734607 36.75897642 -211.7734375 35.375 C-196.6747417 17.73158019 -177.04185864 4.52099438 -156 -5 C-154.96488281 -5.46921875 -153.92976563 -5.9384375 -152.86328125 -6.421875 C-149.93269192 -7.68957986 -146.983672 -8.86317829 -144 -10 C-142.95714844 -10.40863281 -141.91429687 -10.81726562 -140.83984375 -11.23828125 C-95.34607714 -27.80478251 -42.27101027 -23.16819718 0 0 Z " fill="#FEFEFE" transform="translate(311,70)"/>
<path d="M0 0 C1.34987503 -0.01496269 1.34987503 -0.01496269 2.72702026 -0.03022766 C3.71714111 -0.03089233 4.70726196 -0.03155701 5.72738647 -0.03224182 C6.76821381 -0.04056534 7.80904114 -0.04888885 8.88140869 -0.0574646 C12.33840633 -0.0816503 15.79521542 -0.09034887 19.25228882 -0.09693909 C21.65165261 -0.1059016 24.05101581 -0.11502336 26.45037842 -0.1242981 C31.48934285 -0.14081582 36.52824064 -0.1484928 41.56723022 -0.15138245 C48.01690402 -0.15675734 54.46594885 -0.1943894 60.91544533 -0.24012661 C65.87579617 -0.26991217 70.83599619 -0.27710641 75.79642868 -0.2781086 C78.17343388 -0.28231083 80.55043953 -0.29474512 82.92735672 -0.31562614 C86.25960239 -0.34255907 89.59039909 -0.33770729 92.92269897 -0.32521057 C93.90067444 -0.34004486 94.8786499 -0.35487915 95.88626099 -0.37016296 C102.39925324 -0.30080427 106.65947364 1.10841299 111.71322632 5.27415466 C115.90590707 9.7173415 116.14594708 13.42294727 116.06478882 19.26634216 C116.03127319 20.21767029 115.99775757 21.16899841 115.96322632 22.14915466 C115.94517944 23.12368591 115.92713257 24.09821716 115.90853882 25.10227966 C115.86164366 27.49393274 115.79603538 29.88352063 115.71322632 32.27415466 C114.43705444 32.32313904 113.16088257 32.37212341 111.84603882 32.42259216 C110.1767456 32.49761658 108.50747585 32.57316455 106.83822632 32.64915466 C105.5755896 32.69556091 105.5755896 32.69556091 104.28744507 32.74290466 C103.07894897 32.80091248 103.07894897 32.80091248 101.84603882 32.86009216 C101.10241089 32.89151306 100.35878296 32.92293396 99.59262085 32.95530701 C97.47311658 33.12835017 97.47311658 33.12835017 95.71322632 35.27415466 C95.37989299 37.77415466 95.37989299 37.77415466 95.71322632 40.27415466 C98.06680883 42.62773717 98.64291026 42.5528737 101.84603882 42.68821716 C102.65170288 42.72688904 103.45736694 42.76556091 104.28744507 42.80540466 C105.55008179 42.85181091 105.55008179 42.85181091 106.83822632 42.89915466 C107.68771851 42.93782654 108.53721069 42.97649841 109.41244507 43.01634216 C111.51234315 43.11071961 113.61275522 43.19353052 115.71322632 43.27415466 C115.80078937 46.98233763 115.85380647 50.69025229 115.90072632 54.39915466 C115.92586304 55.44587341 115.95099976 56.49259216 115.97689819 57.57102966 C116.03870308 64.08114387 115.80161665 68.88818506 111.21322632 73.91868591 C107.30255912 76.96371063 104.56524125 78.39203903 99.63441467 78.42132568 C98.80596039 78.42848099 97.9775061 78.43563629 97.12394714 78.44300842 C95.76568062 78.44704178 95.76568062 78.44704178 94.37997437 78.45115662 C93.42357056 78.45772781 92.46716675 78.46429901 91.48178101 78.47106934 C88.31283491 78.49080021 85.14393619 78.50246389 81.97494507 78.51243591 C80.89296152 78.51651144 79.81097797 78.52058697 78.69620705 78.524786 C72.97051814 78.54564484 67.2448532 78.55994794 61.51913452 78.56932068 C55.60411002 78.58039066 49.68946114 78.61479817 43.77456951 78.65449238 C39.22693682 78.68062916 34.67939408 78.68900987 30.13169289 78.69260216 C27.95120517 78.69747492 25.77072165 78.70910842 23.59030724 78.72764015 C20.53812184 78.75197076 17.48691442 78.75107756 14.43466187 78.74412537 C13.53522354 78.75693542 12.63578522 78.76974548 11.70909119 78.78294373 C6.18749512 78.73713141 3.12091541 77.90219819 -1.28677368 74.27415466 C-2.22400269 73.51006287 -3.16123169 72.74597107 -4.12686157 71.95872498 C-8.13004861 66.81447392 -6.93466219 59.49679094 -6.84536743 53.32102966 C-6.8411137 51.85466431 -6.83878835 50.38829222 -6.83830261 48.92192078 C-6.83215398 45.85868011 -6.80952908 42.79617555 -6.77383423 39.73313904 C-6.72840238 35.80313091 -6.713799 31.87378516 -6.71009731 27.94353867 C-6.70567529 24.9203893 -6.6903858 21.8973794 -6.67122078 18.87429047 C-6.66233371 17.42459001 -6.65560607 15.97487468 -6.6510601 14.52515411 C-6.64204222 12.50489216 -6.61797837 10.48471411 -6.59317017 8.46458435 C-6.58253036 7.31463989 -6.57189056 6.16469543 -6.56092834 4.97990417 C-6.0978243 0.40933251 -4.12612716 0.02446915 0 0 Z " fill="#FDFEFD" transform="translate(172.28677368164063,201.72584533691406)"/>
<path d="M0 0 C2 2 2 2 2.22705078 4.88916016 C2.21657715 6.09362793 2.20610352 7.2980957 2.1953125 8.5390625 C2.18886719 9.84101563 2.18242187 11.14296875 2.17578125 12.484375 C2.15906929 13.86458595 2.14213939 15.24479429 2.125 16.625 C2.11497006 18.01301452 2.10584423 19.40103589 2.09765625 20.7890625 C2.07401863 24.19288026 2.04106867 27.59635506 2 31 C2.58722839 30.98667633 3.17445679 30.97335266 3.77947998 30.95962524 C9.94472126 30.82588948 16.10954432 30.73598156 22.27587891 30.67041016 C24.57064578 30.64041531 26.86529975 30.59960509 29.15966797 30.54736328 C54.26259407 29.99049106 54.26259407 29.99049106 63 37 C71.1993515 45.21320845 71.31462962 54.65320866 71.3359375 65.71484375 C71.3459227 67.53031456 71.3459227 67.53031456 71.35610962 69.38246155 C71.36620122 71.93326302 71.37092773 74.4840907 71.37060547 77.03491211 C71.37498199 80.9215057 71.4113507 84.80696606 71.44921875 88.69335938 C71.45508704 91.17968364 71.45905635 93.66601327 71.4609375 96.15234375 C71.47530853 97.30572739 71.48967957 98.45911102 71.50448608 99.64744568 C71.4537237 108.67804047 69.56401234 116.43598766 63 123 C57.67132494 126.87540005 53.29580437 129.09965498 46.63803101 129.16062927 C45.33885239 129.17569771 45.33885239 129.17569771 44.01342773 129.19107056 C43.07104248 129.19690155 42.12865723 129.20273254 41.15771484 129.20874023 C40.15882233 129.21852402 39.15992981 129.2283078 38.13076782 129.23838806 C34.82417119 129.26830685 31.51761497 129.28971948 28.2109375 129.30859375 C26.51408247 129.31845149 26.51408247 129.31845149 24.78294754 129.32850838 C18.79329936 129.36108877 12.80366885 129.38554127 6.81396484 129.4050293 C1.86513285 129.42282968 -3.083128 129.45763275 -8.03173828 129.50756836 C-14.01458966 129.56786523 -19.9969122 129.59851839 -25.98005295 129.60820198 C-28.2549594 129.61674231 -30.52985227 129.63552499 -32.8045845 129.6649456 C-35.99745963 129.70401303 -39.18828875 129.70487423 -42.38134766 129.69702148 C-43.77670746 129.7270224 -43.77670746 129.7270224 -45.20025635 129.75762939 C-53.86876046 129.66247486 -60.40240791 125.86101624 -66.4375 119.75 C-72.79850447 111.49703552 -72.4621674 101.18180167 -72.43359375 91.234375 C-72.43816554 89.82814281 -72.44347405 88.42191284 -72.44947815 87.01568604 C-72.45835377 84.08751261 -72.45604662 81.15961281 -72.44604492 78.23144531 C-72.43450627 74.49006288 -72.45486819 70.74961749 -72.48396206 67.008358 C-72.50234374 64.11202065 -72.50202874 61.21590774 -72.49632454 58.31952667 C-72.49617186 56.94009324 -72.50217186 55.56064409 -72.51461601 54.18126678 C-72.617704 40.89564844 -72.617704 40.89564844 -68 36 C-64.88173872 33.16158268 -61.80905277 31.26848879 -58 29.5 C-52.2863431 26.7128503 -46.76461829 23.66177612 -41.25 20.5 C-40.36884521 19.99629883 -39.48769043 19.49259766 -38.57983398 18.97363281 C-33.52732666 16.07113813 -28.51150938 13.11481784 -23.51953125 10.109375 C-22.44348633 9.46677734 -21.36744141 8.82417969 -20.25878906 8.16210938 C-18.16413268 6.90902743 -16.07594074 5.64506109 -13.99511719 4.36914062 C-13.03895508 3.79873047 -12.08279297 3.22832031 -11.09765625 2.640625 C-10.25726807 2.13047852 -9.41687988 1.62033203 -8.55102539 1.09472656 C-5.48732261 -0.22000626 -3.30240382 -0.34130106 0 0 Z M-61 43 C-61.3424121 45.81559649 -61.3424121 45.81559649 -61.33813477 49.15869141 C-61.36057755 50.45408844 -61.38302032 51.74948547 -61.40614319 53.08413696 C-61.419163 54.50660112 -61.43088462 55.92907767 -61.44140625 57.3515625 C-61.44830915 58.06789227 -61.45521206 58.78422203 -61.46232414 59.52225876 C-61.49819764 63.31806414 -61.52171175 67.11372031 -61.53540039 70.90966797 C-61.55189875 74.81745077 -61.61023365 78.72340775 -61.67854404 82.63057899 C-61.72350596 85.64537584 -61.73690805 88.65974337 -61.74201775 91.67484665 C-61.74987864 93.11413141 -61.76942452 94.55340464 -61.80124092 95.99235916 C-62.08916762 105.60762882 -62.08916762 105.60762882 -57.70288086 113.82177734 C-54.13413941 117.3075192 -50.85050683 119.2438615 -45.80766296 119.26742554 C-44.97927917 119.27595551 -44.15089539 119.28448547 -43.29740906 119.29327393 C-41.94689201 119.29191437 -41.94689201 119.29191437 -40.5690918 119.29052734 C-39.61414825 119.29724457 -38.65920471 119.30396179 -37.67532349 119.31088257 C-34.51656905 119.32988917 -31.35802683 119.33378826 -28.19921875 119.3359375 C-26.00209974 119.34236405 -23.80498159 119.3490923 -21.60786438 119.35610962 C-17.00035621 119.36808939 -12.39292304 119.37178977 -7.78540039 119.37060547 C-1.88728891 119.37040235 4.01034034 119.39769427 9.90833759 119.43214989 C14.44744568 119.45441137 18.98643763 119.45844322 23.52559471 119.45738602 C25.69966479 119.45974349 27.87373801 119.46857523 30.04775429 119.48405075 C33.09248003 119.50369304 36.13616494 119.49787895 39.1809082 119.48583984 C40.07518021 119.49707886 40.96945221 119.50831787 41.89082336 119.51989746 C47.76657864 119.46099566 51.16902371 118.39039147 56 115 C60.03387492 110.64766127 61.13000956 107.53173101 61.09765625 101.67578125 C61.09443359 100.64775391 61.09121094 99.61972656 61.08789062 98.56054688 C61.07951172 97.48869141 61.07113281 96.41683594 61.0625 95.3125 C61.05798828 94.22904297 61.05347656 93.14558594 61.04882812 92.02929688 C61.03703743 89.35280915 61.02058063 86.67643223 61 84 C59.72382813 83.95101562 58.44765625 83.90203125 57.1328125 83.8515625 C55.46351928 83.77653809 53.79424954 83.70099012 52.125 83.625 C51.28324219 83.5940625 50.44148438 83.563125 49.57421875 83.53125 C48.76855469 83.49257812 47.96289062 83.45390625 47.1328125 83.4140625 C46.38918457 83.3826416 45.64555664 83.3512207 44.87939453 83.31884766 C43 83 43 83 41 81 C40.75 78.5 40.75 78.5 41 76 C43.35358251 73.64641749 43.92968394 73.72128096 47.1328125 73.5859375 C48.34130859 73.52792969 48.34130859 73.52792969 49.57421875 73.46875 C50.41597656 73.4378125 51.25773437 73.406875 52.125 73.375 C52.97449219 73.33632812 53.82398438 73.29765625 54.69921875 73.2578125 C56.79911684 73.16343506 58.89952891 73.08062414 61 73 C61.11689626 69.62529496 61.18747934 66.2511157 61.25 62.875 C61.28351563 61.92367187 61.31703125 60.97234375 61.3515625 59.9921875 C61.43272076 54.14879261 61.19268075 50.44318684 57 46 C50.97429178 41.03308819 45.85589434 40.28465104 38.20947266 40.40063477 C37.15813141 40.39669205 36.10679016 40.39274933 35.02359009 40.38868713 C31.56992002 40.38200716 28.11758973 40.41106729 24.6640625 40.44140625 C22.25890357 40.44565825 19.85374052 40.44798514 17.44857788 40.44847107 C12.42011794 40.45462539 7.39210538 40.47728054 2.36376953 40.51293945 C-4.09286647 40.55835697 -10.54909936 40.57297368 -17.00588036 40.57667637 C-21.96599323 40.58109533 -26.92602094 40.59637974 -31.88609695 40.6155529 C-34.26802494 40.62445028 -36.64996204 40.63117289 -39.03190231 40.63571358 C-42.35003871 40.6447166 -45.66780335 40.66706911 -48.98583984 40.69360352 C-49.97596069 40.69426819 -50.96608154 40.69493286 -51.98620605 40.69561768 C-53.33608109 40.71058037 -53.33608109 40.71058037 -54.71322632 40.72584534 C-55.49742132 40.73049584 -56.28161633 40.73514635 -57.08957481 40.73993778 C-59.23987429 40.83636263 -59.23987429 40.83636263 -61 43 Z " fill="#06B80C" transform="translate(227,161)"/>
<path d="M0 0 C1.21349101 0.64462663 2.42703213 1.28915892 3.640625 1.93359375 C12.10274786 6.51237402 19.59227106 11.91306261 27 18 C27.57782227 18.46954102 28.15564453 18.93908203 28.75097656 19.42285156 C44.23021025 32.06154865 56.39182845 46.41323879 66.97607422 63.36767578 C67.85760297 64.7729932 68.75718558 66.1669566 69.66015625 67.55859375 C90.7518665 100.91161822 92.77009646 138.77962612 92.50696969 177.01241541 C92.47528861 182.40813605 92.47274308 187.8038772 92.46684265 193.19967651 C92.451425 203.37394973 92.41056353 213.54794791 92.3600952 223.72210109 C92.30382124 235.32341157 92.27662044 246.92473657 92.25161803 258.52614999 C92.19963417 282.35091796 92.111932 306.17544343 92 330 C66.74621667 330.11730403 41.49247476 330.20521716 16.23847294 330.25906086 C4.51004437 330.28473669 -7.21821397 330.31968176 -18.9465332 330.37719727 C-29.18045524 330.42735993 -39.41425388 330.45936797 -49.64829546 330.47044247 C-55.05673653 330.47690612 -60.46482487 330.4918703 -65.87315178 330.52865028 C-121.69859643 330.89326463 -168.31861318 317.77483781 -209 278 C-226.32813433 260.25805947 -238.81237616 239.96633331 -248 217 C-248.70576172 215.24429688 -248.70576172 215.24429688 -249.42578125 213.453125 C-250.80534132 209.6774869 -251.95825199 205.87893936 -253 202 C-253.34272949 200.75935791 -253.34272949 200.75935791 -253.69238281 199.49365234 C-261.24566585 170.900541 -261.2944786 137.41836556 -253 109 C-252.73767578 108.08041504 -252.47535156 107.16083008 -252.20507812 106.21337891 C-244.91687881 81.26833699 -232.9319819 58.70074053 -215.34472656 39.484375 C-214.12630474 38.13942135 -212.94734607 36.75897642 -211.7734375 35.375 C-196.6747417 17.73158019 -177.04185864 4.52099438 -156 -5 C-154.96488281 -5.46921875 -153.92976563 -5.9384375 -152.86328125 -6.421875 C-149.93269192 -7.68957986 -146.983672 -8.86317829 -144 -10 C-142.95714844 -10.40863281 -141.91429687 -10.81726562 -140.83984375 -11.23828125 C-95.34607714 -27.80478251 -42.27101027 -23.16819718 0 0 Z M-163 2 C-163.8137207 2.44988281 -164.62744141 2.89976563 -165.46582031 3.36328125 C-168.06869767 4.81160146 -170.66154108 6.2760779 -173.25 7.75 C-174.06098145 8.20987305 -174.87196289 8.66974609 -175.70751953 9.14355469 C-179.6685462 11.44458689 -182.84985934 13.63808518 -186 17 C-187.56581502 18.22682414 -189.13312267 19.45203789 -190.71972656 20.65185547 C-202.07967843 29.25438622 -211.4973499 38.81716639 -219.94140625 50.28515625 C-222 53 -222 53 -223.77734375 54.68359375 C-225.34026725 56.06692274 -225.34026725 56.06692274 -225 59 C-225.66 59 -226.32 59 -227 59 C-227.40605469 59.83402344 -227.81210938 60.66804688 -228.23046875 61.52734375 C-229.79388464 64.5955043 -231.4435964 67.57348477 -233.15966797 70.55639648 C-238.71992479 80.23209117 -244.02895312 90.03775561 -247.30078125 100.75976562 C-247.96748935 102.89583879 -248.70384359 104.9958282 -249.44921875 107.10546875 C-251.145939 112.18260584 -252.17271319 117.30206768 -253.125 122.5625 C-253.29386719 123.45646484 -253.46273437 124.35042969 -253.63671875 125.27148438 C-257.28615531 144.91234966 -257.65863305 165.43263099 -253.41894531 185.01367188 C-252.99164495 187.03961346 -252.6257692 189.06915122 -252.2734375 191.109375 C-251.16161702 197.39870821 -249.82633375 203.1389998 -246.97265625 208.87890625 C-245.86639833 211.29134823 -245.15386542 213.69583848 -244.4375 216.25 C-243.38432033 219.94179108 -242.04065535 222.73495144 -240 226 C-238.58671813 229.30277829 -237.28341537 232.6448786 -236 236 C-235.34 236 -234.68 236 -234 236 C-233.71125 236.9075 -233.4225 237.815 -233.125 238.75 C-232.23468224 241.32202908 -231.28505587 243.61346766 -230 246 C-229.34 246 -228.68 246 -228 246 C-227.67 247.65 -227.34 249.3 -227 251 C-226.34 251 -225.68 251 -225 251 C-224.78859375 251.67160156 -224.5771875 252.34320313 -224.359375 253.03515625 C-222.53977279 257.00377141 -220.01506972 260.08087172 -217.25 263.4375 C-216.67580322 264.13689697 -216.10160645 264.83629395 -215.51000977 265.55688477 C-206.30606536 276.59289394 -196.21024339 287.25591946 -184 295 C-183.34 295 -182.68 295 -182 295 C-182 295.66 -182 296.32 -182 297 C-179.92111288 298.47686988 -177.86716626 299.81395738 -175.6875 301.125 C-175.09259766 301.49753906 -174.49769531 301.87007813 -173.88476562 302.25390625 C-170.21519303 304.49301074 -170.21519303 304.49301074 -166 305 C-166 305.66 -166 306.32 -166 307 C-164.62884903 307.79831456 -163.25285116 308.5883061 -161.875 309.375 C-160.72644531 310.03628906 -160.72644531 310.03628906 -159.5546875 310.7109375 C-156.76455877 312.11880062 -153.96656539 313.02375782 -151 314 C-149.03740068 314.90749718 -147.07941545 315.82500948 -145.125 316.75 C-138.61142809 319.66224846 -131.91062408 321.51775991 -125 323.25 C-124.02820801 323.49588867 -123.05641602 323.74177734 -122.05517578 323.99511719 C-107.955737 327.40191376 -94.48256956 328.28896412 -80.06103516 328.22705078 C-78.19692491 328.22648539 -76.33281422 328.22680571 -74.46870422 328.22793579 C-69.45105838 328.22850533 -64.43350981 328.21681622 -59.4158864 328.20278788 C-54.1561995 328.19021341 -48.89650992 328.18910475 -43.6368103 328.18673706 C-33.69599321 328.18054192 -23.75522056 328.16415791 -13.81442297 328.14403808 C-2.48904795 328.12161763 8.83632928 328.11067025 20.16172099 328.10064721 C43.44117188 328.07978978 66.72058344 328.04465234 90 328 C90.11743385 304.10187046 90.20527958 280.20378493 90.25906086 256.30542374 C90.28470968 245.20595839 90.31960141 234.10667358 90.37719727 223.00732422 C90.42744443 213.31942824 90.45938744 203.63166316 90.47044247 193.94364047 C90.47689222 188.82628822 90.49176332 183.70931003 90.52865028 178.59207916 C90.70945051 152.47605621 89.86300578 128.1554661 82 103 C81.59587891 101.54787109 81.59587891 101.54787109 81.18359375 100.06640625 C77.25656483 86.88721496 69.66536956 74.94648882 63 63 C62.34 63 61.68 63 61 63 C60.67 61.35 60.34 59.7 60 58 C59.34 58 58.68 58 58 58 C58 57.01 58 56.02 58 55 C57.34 55 56.68 55 56 55 C55.7525 54.27425781 55.505 53.54851562 55.25 52.80078125 C53.87572546 49.72154736 52.25344071 47.68533961 50 45.1875 C49.29875 44.39730469 48.5975 43.60710937 47.875 42.79296875 C46.19146903 40.76962664 46.19146903 40.76962664 44 41 C43.92136719 40.43410156 43.84273438 39.86820313 43.76171875 39.28515625 C41.27129359 31.81388077 31.55541602 25.67066414 25.5 20.875 C24.58311401 20.1468811 24.58311401 20.1468811 23.64770508 19.40405273 C20.67044909 16.83859348 20.67044909 16.83859348 17 16 C17 15.34 17 14.68 17 14 C15.40677649 12.72287299 15.40677649 12.72287299 13.29296875 11.49609375 C12.48859375 11.00705566 11.68421875 10.51801758 10.85546875 10.01416016 C9.53482422 9.23371338 9.53482422 9.23371338 8.1875 8.4375 C7.28257812 7.9017334 6.37765625 7.3659668 5.4453125 6.81396484 C-46.28161135 -23.35707645 -109.82017711 -27.57436802 -163 2 Z " fill="#09B911" transform="translate(311,70)"/>
<path d="M0 0 C0.66 0 1.32 0 2 0 C2 5.61 2 11.22 2 17 C-7.57 17 -17.14 17 -27 17 C-24.23674451 14.23674451 -22.0812992 12.76906611 -18.7109375 10.8984375 C-17.17566406 10.03992188 -17.17566406 10.03992188 -15.609375 9.1640625 C-14.54203125 8.57367188 -13.4746875 7.98328125 -12.375 7.375 C-10.2570559 6.19667139 -8.13982792 5.01705438 -6.0234375 3.8359375 C-5.08419434 3.31563965 -4.14495117 2.7953418 -3.17724609 2.25927734 C-1.09238493 1.17840917 -1.09238493 1.17840917 0 0 Z " fill="#EEF9EC" transform="translate(217,175)"/>
<path d="M0 0 C0.66 0.33 1.32 0.66 2 1 C-0.38957269 4.24299151 -2.2047869 6.50902342 -6 8 C-6 5 -6 5 -4.6875 3.61328125 C-3.125 2.40885417 -1.5625 1.20442708 0 0 Z " fill="#12B811" transform="translate(292,278)"/>
</svg>
